<?xml version="1.0" encoding="UTF-8" standalone="no"?>
<!DOCTYPE svg PUBLIC "-//W3C//DTD SVG 1.1//EN" "http://www.w3.org/Graphics/SVG/1.1/DTD/svg11.dtd">
<svg width="100%" height="100%" viewBox="0 0 979 909" version="1.1" xmlns="http://www.w3.org/2000/svg" xmlns:xlink="http://www.w3.org/1999/xlink" xml:space="preserve" xmlns:serif="http://www.serif.com/" style="fill-rule:evenodd;clip-rule:evenodd;stroke-linecap:square;stroke-miterlimit:1.5;">
    <g transform="matrix(1,0,0,1,-57.6885,-79.8225)">
        <g transform="matrix(1.32302,0.234874,-0.218474,1.23064,-53.6746,-252.436)">
            <path d="M508.451,172.964C657.708,146.125 862.052,304.561 875.394,486.36C894.325,744.336 712.634,924.454 502.022,894.431C424.618,883.397 214.232,837.11 183.614,600.64C152.996,364.17 362.78,199.157 508.451,172.964Z" style="fill:rgb(219,219,219);"/>
        </g>
        <g transform="matrix(1.14477,0.467534,-0.467534,1.14477,176.191,-331.332)">
            <path d="M540,200.744C758.926,170.708 836.152,371.153 848.886,526.659C868.158,762.018 758.666,827.621 540,853.827C317.207,880.528 239.647,795.691 213.811,564.276C191.106,360.915 366.772,224.51 540,200.744Z" style="fill:rgb(62,118,225);fill-opacity:0.63;"/>
        </g>
        <path d="M508.451,172.964C657.708,146.125 862.052,304.561 875.394,486.36C894.325,744.336 712.634,924.454 502.022,894.431C424.618,883.397 214.232,837.11 183.614,600.64C152.996,364.17 362.78,199.157 508.451,172.964Z" style="fill:rgb(22,21,99);fill-opacity:0.69;"/>
        <path d="M540,200.744C758.926,170.708 836.152,371.153 848.886,526.659C868.158,762.018 758.666,827.621 540,853.827C317.207,880.528 239.647,795.691 213.811,564.276C191.106,360.915 366.772,224.51 540,200.744Z" style="fill:rgb(62,118,225);"/>
        <g transform="matrix(1.06401,0,0,0.806308,28.2913,218.876)">
            <path d="M661.411,231.153C661.411,227.922 659.423,225.299 656.974,225.299L305.49,225.299C302.7,225.299 300.435,228.288 300.435,231.969L300.435,538.138L661.411,538.138L661.411,231.153Z" style="fill:rgb(241,241,241);stroke:rgb(59,59,59);stroke-width:12.71px;"/>
        </g>
        <g transform="matrix(0.935214,0,0,0.587234,302.105,105.616)">
            <rect x="66.859" y="781.051" width="118.061" height="61.925" style="fill:rgb(62,118,225);"/>
        </g>
        <g transform="matrix(1.05939,0,0,1,59.6154,138.528)">
            <path d="M665.814,519.616L665.814,526.115C665.814,534.294 659.545,540.935 651.824,540.935L255.209,540.935C247.417,540.935 241.09,534.233 241.09,525.977L241.09,519.616L665.814,519.616Z" style="fill:rgb(195,195,195);"/>
        </g>
        <g transform="matrix(0.984433,0,0,1.03885,301.217,-231.665)">
            <rect x="64.045" y="622.697" width="356.841" height="21.228" style="fill:rgb(22,21,99);"/>
        </g>
        <g transform="matrix(0.20951,0,0,0.977077,133.786,-431.905)">
            <path d="M420.886,631.249L420.886,643.925L64.045,643.925L64.045,631.104C64.045,626.464 81.613,622.697 103.253,622.697L381.004,622.697C403.015,622.697 420.886,626.529 420.886,631.249Z" style="fill:rgb(22,21,99);"/>
        </g>
        <g transform="matrix(0.379646,0,0,1.26983,851.079,-74.1073)">
            <path d="M420.886,633.234L420.886,643.925L64.045,643.925L64.045,633.32C64.045,627.457 79.966,622.697 99.576,622.697L385.643,622.697C405.094,622.697 420.886,627.418 420.886,633.234Z" style="fill:rgb(22,21,99);"/>
        </g>
        <g transform="matrix(0.999721,0,0,1,297.962,-213.366)">
            <rect x="66.69" y="659.75" width="351.016" height="107.262" style="fill:rgb(62,118,225);fill-opacity:0;"/>
        </g>
        <g transform="matrix(0.935214,0,0,0.587234,422.358,105.616)">
            <rect x="66.859" y="781.051" width="118.061" height="61.925" style="fill:rgb(22,21,99);"/>
        </g>
        <g transform="matrix(0.935214,0,0,0.587234,542.611,105.616)">
            <rect x="66.859" y="781.051" width="118.061" height="61.925" style="fill:rgb(62,118,225);"/>
        </g>
        <g transform="matrix(1,0,0,1,294.069,-209.809)">
            <path d="M298.316,868.468C298.316,874.067 293.771,878.612 288.172,878.612L201.661,878.612C197.182,878.612 193.545,874.976 193.545,870.497L193.545,868.468L298.316,868.468Z" style="fill:rgb(235,235,235);"/>
        </g>
        <g transform="matrix(0.516275,0,0,0.605628,440.725,150.618)">
            <path d="M428.946,452.675L428.946,457.557C428.946,458.194 428.34,458.711 427.593,458.711L355.804,458.711C355.057,458.711 354.451,458.194 354.451,457.557L354.451,452.675C354.451,452.038 355.057,451.521 355.804,451.521L427.593,451.521C428.34,451.521 428.946,452.038 428.946,452.675Z" style="fill:white;fill-opacity:0.59;"/>
        </g>
        <g transform="matrix(0.516275,0,0,0.605628,395.126,150.618)">
            <path d="M428.946,452.675L428.946,457.557C428.946,458.194 428.34,458.711 427.593,458.711L355.804,458.711C355.057,458.711 354.451,458.194 354.451,457.557L354.451,452.675C354.451,452.038 355.057,451.521 355.804,451.521L427.593,451.521C428.34,451.521 428.946,452.038 428.946,452.675Z" style="fill:white;fill-opacity:0.59;"/>
        </g>
        <g transform="matrix(0.516275,0,0,0.605628,486.774,150.618)">
            <path d="M428.946,452.675L428.946,457.557C428.946,458.194 428.34,458.711 427.593,458.711L355.804,458.711C355.057,458.711 354.451,458.194 354.451,457.557L354.451,452.675C354.451,452.038 355.057,451.521 355.804,451.521L427.593,451.521C428.34,451.521 428.946,452.038 428.946,452.675Z" style="fill:white;fill-opacity:0.59;"/>
        </g>
        <g transform="matrix(1.24014,0,0,1.60631,54.2382,-242.236)">
            <path d="M428.946,452.675L428.946,457.557C428.946,458.194 428.277,458.711 427.452,458.711L355.945,458.711C355.12,458.711 354.451,458.194 354.451,457.557L354.451,452.675C354.451,452.038 355.12,451.521 355.945,451.521L427.452,451.521C428.277,451.521 428.946,452.038 428.946,452.675Z" style="fill-opacity:0.27;"/>
        </g>
        <g transform="matrix(1.05207,0,0,1.60631,127.997,-260.777)">
            <path d="M428.946,452.675L428.946,457.557C428.946,458.194 428.157,458.711 427.185,458.711L356.212,458.711C355.24,458.711 354.451,458.194 354.451,457.557L354.451,452.675C354.451,452.038 355.24,451.521 356.212,451.521L427.185,451.521C428.157,451.521 428.946,452.038 428.946,452.675Z" style="fill-opacity:0.27;"/>
        </g>
        <g transform="matrix(1.48213,0,0,1,-160.539,156.229)">
            <path d="M428.946,452.675L428.946,457.557C428.946,458.194 428.598,458.711 428.168,458.711L355.229,458.711C354.799,458.711 354.451,458.194 354.451,457.557L354.451,452.675C354.451,452.038 354.799,451.521 355.229,451.521L428.168,451.521C428.598,451.521 428.946,452.038 428.946,452.675Z" style="fill:rgb(176,176,176);"/>
        </g>
        <g transform="matrix(1.48213,0,0,1,-40.5471,156.298)">
            <path d="M428.946,452.675L428.946,457.557C428.946,458.194 428.598,458.711 428.168,458.711L355.229,458.711C354.799,458.711 354.451,458.194 354.451,457.557L354.451,452.675C354.451,452.038 354.799,451.521 355.229,451.521L428.168,451.521C428.598,451.521 428.946,452.038 428.946,452.675Z" style="fill:rgb(176,176,176);"/>
        </g>
        <g transform="matrix(1.48213,0,0,1,80.456,156.298)">
            <path d="M428.946,452.675L428.946,457.557C428.946,458.194 428.598,458.711 428.168,458.711L355.229,458.711C354.799,458.711 354.451,458.194 354.451,457.557L354.451,452.675C354.451,452.038 354.799,451.521 355.229,451.521L428.168,451.521C428.598,451.521 428.946,452.038 428.946,452.675Z" style="fill:rgb(176,176,176);"/>
        </g>
        <g transform="matrix(1.48213,0,0,1,-160.539,169.266)">
            <path d="M428.946,452.675L428.946,457.557C428.946,458.194 428.598,458.711 428.168,458.711L355.229,458.711C354.799,458.711 354.451,458.194 354.451,457.557L354.451,452.675C354.451,452.038 354.799,451.521 355.229,451.521L428.168,451.521C428.598,451.521 428.946,452.038 428.946,452.675Z" style="fill:rgb(176,176,176);"/>
        </g>
        <g transform="matrix(1.48213,0,0,1,-40.5471,169.246)">
            <path d="M428.946,452.675L428.946,457.557C428.946,458.194 428.598,458.711 428.168,458.711L355.229,458.711C354.799,458.711 354.451,458.194 354.451,457.557L354.451,452.675C354.451,452.038 354.799,451.521 355.229,451.521L428.168,451.521C428.598,451.521 428.946,452.038 428.946,452.675Z" style="fill:rgb(176,176,176);"/>
        </g>
        <g transform="matrix(1.48213,0,0,1,80.456,169.246)">
            <path d="M428.946,452.675L428.946,457.557C428.946,458.194 428.598,458.711 428.168,458.711L355.229,458.711C354.799,458.711 354.451,458.194 354.451,457.557L354.451,452.675C354.451,452.038 354.799,451.521 355.229,451.521L428.168,451.521C428.598,451.521 428.946,452.038 428.946,452.675Z" style="fill:rgb(176,176,176);"/>
        </g>
        <g transform="matrix(1.48213,0,0,1,-160.539,182.345)">
            <path d="M428.946,452.675L428.946,457.557C428.946,458.194 428.598,458.711 428.168,458.711L355.229,458.711C354.799,458.711 354.451,458.194 354.451,457.557L354.451,452.675C354.451,452.038 354.799,451.521 355.229,451.521L428.168,451.521C428.598,451.521 428.946,452.038 428.946,452.675Z" style="fill:rgb(176,176,176);"/>
        </g>
        <g transform="matrix(1.48213,0,0,1,-40.5471,182.324)">
            <path d="M428.946,452.675L428.946,457.557C428.946,458.194 428.598,458.711 428.168,458.711L355.229,458.711C354.799,458.711 354.451,458.194 354.451,457.557L354.451,452.675C354.451,452.038 354.799,451.521 355.229,451.521L428.168,451.521C428.598,451.521 428.946,452.038 428.946,452.675Z" style="fill:rgb(176,176,176);"/>
        </g>
        <g transform="matrix(1.48213,0,0,1,80.456,182.324)">
            <path d="M428.946,452.675L428.946,457.557C428.946,458.194 428.598,458.711 428.168,458.711L355.229,458.711C354.799,458.711 354.451,458.194 354.451,457.557L354.451,452.675C354.451,452.038 354.799,451.521 355.229,451.521L428.168,451.521C428.598,451.521 428.946,452.038 428.946,452.675Z" style="fill:rgb(176,176,176);"/>
        </g>
        <g transform="matrix(2.27309,0,0,1.97933,524.313,353.124)">
            <rect x="154.451" y="197.259" width="59.599" height="96.992" style="fill:rgb(241,241,241);"/>
            <g transform="matrix(0.586153,0,0,0.50522,-45.3636,47.2088)">
                <path d="M428.946,452.675L428.946,457.557C428.946,458.194 428.558,458.711 428.081,458.711L355.316,458.711C354.839,458.711 354.451,458.194 354.451,457.557L354.451,452.675C354.451,452.038 354.839,451.521 355.316,451.521L428.081,451.521C428.558,451.521 428.946,452.038 428.946,452.675Z" style="fill:rgb(176,176,176);"/>
            </g>
            <g transform="matrix(0.586153,0,0,0.50522,-45.3636,53.8164)">
                <path d="M428.946,452.675L428.946,457.557C428.946,458.194 428.558,458.711 428.081,458.711L355.316,458.711C354.839,458.711 354.451,458.194 354.451,457.557L354.451,452.675C354.451,452.038 354.839,451.521 355.316,451.521L428.081,451.521C428.558,451.521 428.946,452.038 428.946,452.675Z" style="fill:rgb(176,176,176);"/>
            </g>
        </g>
        <g transform="matrix(1.33238,0,0,1,421.198,433.618)">
            <path d="M428.946,452.675L428.946,457.557C428.946,458.194 428.558,458.711 428.081,458.711L355.316,458.711C354.839,458.711 354.451,458.194 354.451,457.557L354.451,452.675C354.451,452.038 354.839,451.521 355.316,451.521L428.081,451.521C428.558,451.521 428.946,452.038 428.946,452.675Z" style="fill:rgb(176,176,176);"/>
        </g>
        <g transform="matrix(1,0,0,1,25.6674,8.11941)">
            <circle cx="352.971" cy="418.13" r="5.513" style="fill:white;fill-opacity:0.59;"/>
        </g>
        <g transform="matrix(0.595417,0,0,0.595417,-47.8208,-60.5729)">
            <circle cx="352.971" cy="418.13" r="5.513" style="fill:white;fill-opacity:0.59;"/>
        </g>
        <g transform="matrix(1.24791,0,0,1.2494,460.341,210.676)">
            <circle cx="352.971" cy="418.13" r="5.513" style="fill:white;fill-opacity:0.59;"/>
        </g>
        <g transform="matrix(1.21764,0,0,1,-50.3958,0)">
            <path d="M484.794,390.887L484.794,246.342L231.557,246.273" style="fill:none;stroke:white;stroke-width:3.59px;stroke-linecap:round;stroke-miterlimit:5;stroke-dasharray:3.59,10.77,0,0,0,0;"/>
        </g>
        <g transform="matrix(-1.28387,3.47644e-17,3.47644e-17,-1,1162.41,1072.35)">
            <path d="M484.794,390.887L484.794,246.342L231.557,246.273" style="fill:none;stroke:white;stroke-width:3.48px;stroke-linecap:round;stroke-miterlimit:5;stroke-dasharray:3.48,10.43,0,0,0,0;"/>
        </g>
        <g transform="matrix(1.51055,0,0,1.30819,688.543,485.005)">
            <path d="M213.383,195.038L213.383,326.404C213.383,336.336 206.399,344.4 197.798,344.4L139.282,344.4C130.681,344.4 123.697,336.336 123.697,326.404L123.697,195.038C123.697,185.106 130.681,177.042 139.282,177.042L197.798,177.042C206.399,177.042 213.383,185.106 213.383,195.038Z" style="fill:none;stroke:rgb(59,59,59);stroke-width:7.08px;stroke-linecap:round;stroke-miterlimit:5;"/>
        </g>
        <g transform="matrix(0.840725,0,0,0.587234,837.333,382.936)">
            <rect x="66.859" y="781.051" width="118.061" height="61.925" style="fill:rgb(22,21,99);"/>
        </g>
        <g transform="matrix(1,0,0,1.37964,1.24538,-67.0136)">
            <path d="M192.247,179.122L192.247,180.493C192.247,181.93 190.637,183.097 188.654,183.097L178.026,183.097C176.043,183.097 174.433,181.93 174.433,180.493L174.433,179.122C174.433,177.685 176.043,176.518 178.026,176.518L188.654,176.518C190.637,176.518 192.247,177.685 192.247,179.122Z" style="fill:rgb(59,59,59);stroke:rgb(59,59,59);stroke-width:3.32px;stroke-linecap:round;stroke-miterlimit:5;"/>
        </g>
        <g transform="matrix(1.25442,0,0,1.22452,-46.5412,-44.2879)">
            <path d="M214.049,197.259L214.049,282.128C214.049,288.819 208.747,294.251 202.216,294.251L166.223,294.251C159.726,294.251 154.451,288.847 154.451,282.191L154.451,197.259L214.049,197.259Z" style="fill:rgb(241,241,241);"/>
        </g>
        <g transform="matrix(0.833602,0,0,0.833602,44.0897,28.9349)">
            <path d="M213.383,192.627L213.383,328.815C213.383,337.416 206.399,344.4 197.798,344.4L139.282,344.4C130.681,344.4 123.697,337.416 123.697,328.815L123.697,192.627C123.697,184.026 130.681,177.042 139.282,177.042L197.798,177.042C206.399,177.042 213.383,184.026 213.383,192.627Z" style="fill:none;stroke:rgb(59,59,59);stroke-width:7.2px;stroke-linecap:round;stroke-miterlimit:5;"/>
        </g>
        <g transform="matrix(0.510155,0,0,1.60631,-15.2417,-515.538)">
            <path d="M428.946,452.675L428.946,457.557C428.946,458.194 427.319,458.711 425.314,458.711L358.083,458.711C356.078,458.711 354.451,458.194 354.451,457.557L354.451,452.675C354.451,452.038 356.078,451.521 358.083,451.521L425.314,451.521C427.319,451.521 428.946,452.038 428.946,452.675Z" style="fill-opacity:0.27;"/>
        </g>
        <g transform="matrix(0.924436,0,0,1.649,581.03,13.2529)">
            <path d="M428.946,452.675L428.946,457.557C428.946,458.194 428.024,458.711 426.889,458.711L356.508,458.711C355.373,458.711 354.451,458.194 354.451,457.557L354.451,452.675C354.451,452.038 355.373,451.521 356.508,451.521L426.889,451.521C428.024,451.521 428.946,452.038 428.946,452.675Z" style="fill-opacity:0.27;"/>
        </g>
        <g transform="matrix(0.651041,0,0,1.60631,-70.4267,-497.523)">
            <path d="M428.946,452.675L428.946,457.557C428.946,458.194 427.671,458.711 426.1,458.711L357.297,458.711C355.726,458.711 354.451,458.194 354.451,457.557L354.451,452.675C354.451,452.038 355.726,451.521 357.297,451.521L426.1,451.521C427.671,451.521 428.946,452.038 428.946,452.675Z" style="fill-opacity:0.27;"/>
        </g>
        <g transform="matrix(1.17973,0,0,1.649,481.031,30.9024)">
            <path d="M428.946,452.675L428.946,457.557C428.946,458.194 428.224,458.711 427.334,458.711L356.063,458.711C355.173,458.711 354.451,458.194 354.451,457.557L354.451,452.675C354.451,452.038 355.173,451.521 356.063,451.521L427.334,451.521C428.224,451.521 428.946,452.038 428.946,452.675Z" style="fill-opacity:0.27;"/>
        </g>
    </g>
</svg>
