<svg width="147" height="40" viewBox="0 0 147 40" fill="none" xmlns="http://www.w3.org/2000/svg">
<path d="M54.624 27.22C51.94 27.22 49.9013 26.5967 48.508 25.35C47.1293 24.1033 46.44 22.3067 46.44 19.96C46.44 17.5547 47.122 15.7287 48.486 14.482C49.85 13.2353 51.8813 12.612 54.58 12.612C55.4893 12.612 56.2887 12.678 56.978 12.81C57.6673 12.942 58.3347 13.1327 58.98 13.382V17.496C58.3053 17.2027 57.638 16.9827 56.978 16.836C56.3327 16.6893 55.6433 16.616 54.91 16.616C53.722 16.616 52.8127 16.8727 52.182 17.386C51.566 17.8847 51.258 18.7427 51.258 19.96C51.258 21.148 51.5807 21.9913 52.226 22.49C52.886 22.974 53.7953 23.216 54.954 23.216C55.6727 23.216 56.362 23.15 57.022 23.018C57.682 22.8713 58.3493 22.6513 59.024 22.358V26.494C58.3787 26.7287 57.704 26.9047 57 27.022C56.3107 27.154 55.5187 27.22 54.624 27.22ZM67.3247 27.22C65.7407 27.22 64.3987 26.978 63.2987 26.494C62.1987 26.01 61.3554 25.2327 60.7687 24.162C60.1967 23.0913 59.9107 21.6833 59.9107 19.938C59.9107 18.1633 60.1967 16.7407 60.7687 15.67C61.3554 14.5993 62.1987 13.822 63.2987 13.338C64.3987 12.854 65.7407 12.612 67.3247 12.612C68.9087 12.612 70.2507 12.854 71.3507 13.338C72.4507 13.822 73.2867 14.5993 73.8587 15.67C74.4454 16.7407 74.7387 18.1633 74.7387 19.938C74.7387 21.6833 74.4454 23.0913 73.8587 24.162C73.2867 25.2327 72.4507 26.01 71.3507 26.494C70.2507 26.978 68.9087 27.22 67.3247 27.22ZM67.3247 23.216C68.234 23.216 68.8867 22.9593 69.2827 22.446C69.6934 21.9327 69.8987 21.0967 69.8987 19.938C69.8987 18.7207 69.6934 17.87 69.2827 17.386C68.8867 16.8873 68.234 16.638 67.3247 16.638C66.4007 16.638 65.7334 16.8873 65.3227 17.386C64.9267 17.87 64.7287 18.7207 64.7287 19.938C64.7287 21.0967 64.9267 21.9327 65.3227 22.446C65.7334 22.9593 66.4007 23.216 67.3247 23.216ZM76.0558 27V12.832H80.0378L84.7018 19.366V12.832H89.4318V27H85.4058L80.7858 20.488V27H76.0558ZM95.9763 27.22C94.9936 27.22 94.0549 27.1393 93.1603 26.978C92.2803 26.8167 91.5323 26.5893 90.9163 26.296V22.6C91.6056 22.9227 92.3609 23.1867 93.1823 23.392C94.0183 23.5973 94.7809 23.7 95.4703 23.7C96.0569 23.7 96.5043 23.6413 96.8123 23.524C97.1349 23.4067 97.2963 23.1867 97.2963 22.864C97.2963 22.4973 97.0543 22.2333 96.5703 22.072C96.0863 21.896 95.3896 21.654 94.4803 21.346C93.5416 21.0233 92.8009 20.6787 92.2583 20.312C91.7303 19.9307 91.3489 19.476 91.1143 18.948C90.8796 18.4053 90.7623 17.7453 90.7623 16.968C90.7623 14.064 92.7789 12.612 96.8123 12.612C97.3109 12.612 97.8389 12.6487 98.3963 12.722C98.9683 12.7807 99.5109 12.8613 100.024 12.964C100.552 13.052 101 13.1547 101.366 13.272V16.99C100.618 16.6967 99.9289 16.4913 99.2983 16.374C98.6823 16.242 98.1176 16.176 97.6043 16.176C97.0909 16.176 96.6216 16.22 96.1963 16.308C95.7856 16.3813 95.5803 16.5867 95.5803 16.924C95.5803 17.2027 95.7636 17.4153 96.1303 17.562C96.4969 17.694 97.1129 17.8773 97.9783 18.112C99.1369 18.4347 100.01 18.816 100.596 19.256C101.198 19.696 101.601 20.2167 101.806 20.818C102.026 21.4047 102.136 22.0793 102.136 22.842C102.136 24.162 101.623 25.2253 100.596 26.032C99.5696 26.824 98.0296 27.22 95.9763 27.22ZM110.224 27.22C108.904 27.22 107.724 27 106.682 26.56C105.641 26.12 104.82 25.4747 104.218 24.624C103.632 23.7733 103.338 22.7247 103.338 21.478V12.832H108.068V20.928C108.068 22.4533 108.787 23.216 110.224 23.216C111.662 23.216 112.38 22.4533 112.38 20.928V12.832H117.11V21.478C117.11 22.7247 116.81 23.7733 116.208 24.624C115.622 25.4747 114.808 26.12 113.766 26.56C112.74 27 111.559 27.22 110.224 27.22ZM118.767 27V12.832H123.497V23.392H129.569V27H118.767ZM131.811 27V16.286H128.027V12.832H140.347V16.286H136.541V27H131.811ZM141.218 27V12.832H145.948V27H141.218Z" fill="#161563"/>
<path d="M0 14.5C0 6.49187 6.49187 0 14.5 0H39V20H0V14.5Z" fill="#3E76E1"/>
<path d="M0 20H39V25.5C39 33.5081 32.5081 40 24.5 40H0V20Z" fill="#464646" fill-opacity="0.12"/>
</svg>
